<svg xmlns="http://www.w3.org/2000/svg" viewBox="0 0 64 64" width="64" height="64">
  <!-- Flame / Fire icon in orange (#FF6B35) for Haesh Sheli (My Fire) -->
  <defs>
    <linearGradient id="flame" x1="0%" y1="100%" x2="0%" y2="0%">
      <stop offset="0%" style="stop-color:#FF6B35"/>
      <stop offset="50%" style="stop-color:#FF8C42"/>
      <stop offset="100%" style="stop-color:#FFD700"/>
    </linearGradient>
  </defs>
  <!-- Outer flame -->
  <path d="M32 4C32 4 12 24 12 40C12 51 21 60 32 60C43 60 52 51 52 40C52 24 32 4 32 4Z" fill="url(#flame)"/>
  <!-- Inner flame (lighter) -->
  <path d="M32 20C32 20 22 32 22 42C22 47.5 26.5 52 32 52C37.5 52 42 47.5 42 42C42 32 32 20 32 20Z" fill="#FFD700" opacity="0.7"/>
  <!-- Book shape at base -->
  <rect x="22" y="48" width="20" height="4" rx="1" fill="#FF6B35" opacity="0.8"/>
  <line x1="32" y1="48" x2="32" y2="52" stroke="white" stroke-width="0.5" opacity="0.6"/>
</svg>
